<?xml version="1.0" encoding="utf-8"?>
<!-- Generator: Adobe Illustrator 30.0.0, SVG Export Plug-In . SVG Version: 9.03 Build 0)  -->
<svg version="1.0" id="Layer_1" xmlns="http://www.w3.org/2000/svg" xmlns:xlink="http://www.w3.org/1999/xlink" x="0px" y="0px"
	 viewBox="0 0 245.07 230.92" style="enable-background:new 0 0 245.07 230.92;" xml:space="preserve">
<style type="text/css">
	.st0{fill:#78BE20;}
	.st1{fill:#565656;}
</style>
<g>
	<g>
		<g>
			<g>
				<path class="st0" d="M585.72,0.4c-36.97,2.44-61.02,20.36-67.43,67.5c-2.09,15.35,0.77,31.09,8.65,44.42
					c25.84,43.71,92.64,50.66,124.02,5.43C686.2,66.94,653.28-5.18,585.72,0.4z M595.89,73.62c12.54,0.29,30.87,4.88,30.29,29.84
					c-0.36,15.12-4.39,19.19-52.07,18.07c-8.36-0.19-17.16-2.29-16.77-18.93c0.31-13.09,7.72-20.5,16.37-24.54
					c-7.5,1.33-15.09-0.08-18.68-13.64c-6.27-23.59,19.41-35.38,31.23-38.52c12.82-3.41,32.73-4.48,38.99,19.11
					c3.45,12.99,1.31,18.3-35.72,28.89C591.91,73.64,594.08,73.58,595.89,73.62z"/>
			</g>
		</g>
		<path class="st0" d="M488.93,0.41c7.54-0.57,19.51-0.82,26.64,1.19c24.01,6.76-38.49,31.08-32.61,75.18
			c5.23,39.2,53.89,69.26,26.61,71.76c-32.33,2.97-63.97-8.89-80.07-38.09C403.34,62.99,435.28,4.5,488.93,0.41z"/>
		<g>
			<path class="st0" d="M613.27,94.78c-4.43,2.63-8.42,6.85-10.71,11.83c-0.52,1.13-2.19,0.92-2.36-0.31
				c-0.01-0.06-0.02-0.13-0.03-0.19c-0.8-6.4,3.93-12.18,10.35-12.82l2.19-0.22C613.69,92.98,614.11,94.27,613.27,94.78z"/>
			<path class="st0" d="M589.91,97.02c-2.4,1.72-3.64,4.58-5.18,7.2c-0.75,1.28-2.72,0.7-2.65-0.78c0.14-2.95,1.5-6.72,7.2-8.05h0
				C590.21,95.29,590.67,96.48,589.91,97.02z"/>
			<path class="st0" d="M572.92,99.11c-1.82,1.69-3.36,3.91-4.49,6.35c-0.38,0.81-1.57,0.63-1.72-0.25
				c-0.01-0.04-0.01-0.07-0.02-0.11c-0.6-3.62,2.09-6.95,5.76-7.14l0,0C573.06,97.92,573.38,98.68,572.92,99.11z"/>
		</g>
		<g>
			<path class="st0" d="M605.78,41.23c-2.49,3.66-4.21,8.15-4.63,12.75c-0.23,2.57-1.41,2.8-2.56,0.49
				c-0.03-0.05-0.05-0.11-0.08-0.16c-2.74-5.66-0.21-12.47,5.43-15.22v0C605.3,38.43,606.62,39.99,605.78,41.23z"/>
			<path class="st0" d="M585.93,49.75c-1.34,1.98-2.24,5.68-2.77,8.49c-0.24,1.25-1.98,1.41-2.41,0.21c-1.06-3-1.29-7.26,4.02-10.01
				v0C585.61,48.03,586.45,48.98,585.93,49.75z"/>
			<path class="st0" d="M570.73,57.62c-1.12,2.22-1.79,4.85-2.01,7.52c-0.13,1.57-0.91,1.73-1.7,0.36c-0.02-0.03-0.04-0.07-0.06-0.1
				c-1.83-3.18-0.46-7.25,2.91-8.7v0C570.45,56.47,571.01,57.07,570.73,57.62z"/>
		</g>
	</g>
	<g>
		<path class="st1" d="M440.28,208.41v-0.49h-0.36c-1.22,5.05-3.53,6.94-8.09,6.94c-5.66,0-8.7-3.22-8.7-8.76
			c0-6.08,3.65-9.67,10.22-13.08l6.63-3.41v-3.29h6.39v20.2c0,2.68,1.16,3.59,4.14,3.59h1.89v6.33l-1.64,1.64
			C443.39,218.02,440.28,214.68,440.28,208.41z M439.98,203.3v-7.79l-4.99,2.5c-4.32,2.13-6.33,3.41-6.33,5.84
			c0,2.19,1.22,3.04,4.87,3.04C438.28,206.89,439.98,205.97,439.98,203.3z M430.3,177.68c0-2.68,1.4-3.77,3.35-3.77h1.04
			c1.95,0,3.35,1.1,3.35,3.77c0,2.62-1.4,3.71-3.35,3.71h-1.04C431.7,181.39,430.3,180.29,430.3,177.68z M439.37,177.68
			c0-2.68,1.4-3.77,3.35-3.77h1.03c1.95,0,3.35,1.1,3.35,3.77c0,2.62-1.4,3.71-3.35,3.71h-1.03
			C440.77,181.39,439.37,180.29,439.37,177.68z"/>
		<path class="st1" d="M450.75,211.75l1.64-1.64h1.89c3.41,0,4.99-1.46,4.99-4.56v-8.95h5.96v8.95c0,3.1,1.46,4.56,4.56,4.56h2.31
			v6.33l-1.64,1.64c-6.21,0-9.43-2.37-10.53-7.55h-0.3c-1.03,5.29-3.59,7.55-8.88,7.55V211.75z M458.36,187.29
			c0-2.68,1.4-3.77,3.35-3.77h1.03c1.95,0,3.35,1.09,3.35,3.77c0,2.62-1.4,3.71-3.35,3.71h-1.03
			C459.76,191,458.36,189.91,458.36,187.29z"/>
		<path class="st1" d="M470.47,211.75l1.64-1.64h1.52c5.66,0,7.48-1.03,7.48-4.08c0-1.28-0.18-3.16-0.73-6.45l-0.97-5.48l5.96-0.97
			l0.85,5.48c0.43,2.74,0.67,5.54,0.67,7.42c0,8.21-4.08,12.05-13.27,12.05h-3.16V211.75z M472.85,227.21c0-2.68,1.4-3.77,3.35-3.77
			h1.03c1.95,0,3.35,1.1,3.35,3.77c0,2.62-1.4,3.71-3.35,3.71h-1.03C474.25,230.92,472.85,229.83,472.85,227.21z M481.91,227.21
			c0-2.68,1.4-3.77,3.35-3.77h1.03c1.95,0,3.35,1.1,3.35,3.77c0,2.62-1.4,3.71-3.35,3.71h-1.03
			C483.31,230.92,481.91,229.83,481.91,227.21z"/>
		<path class="st1" d="M490.86,210.23v-4.26h6.21v4.14h8.28c3.53,0,4.81-0.67,4.81-2.62c0-0.85-0.43-2.19-1.03-3.83l-5.48-15.58
			l6.75-2.43l6.15,17.46c2.01,5.6,3.47,7,6.45,7h1.76v6.33l-1.64,1.64c-6.08,0-8.88-1.7-11.5-7.48l-0.24,0.06
			c-0.91,5.35-3.1,7.42-8.28,7.42h-4.56C493.66,218.08,490.86,215.59,490.86,210.23z"/>
		<path class="st1" d="M538.02,220.88c-3.96-2.19-6.08-2.8-9.98-2.8h-4.93v-6.33l1.64-1.64h3.89v-37.06h6.51v37.85
			c2.01,0.61,4.08,1.52,6.69,2.98l3.04,1.64l-3.83,7.06L538.02,220.88z"/>
		<path class="st1" d="M546.85,173.05h6.51v45.03h-6.51V173.05z"/>
		<path class="st1" d="M567.97,224.72h2.37c7.79,0,10.77-3.59,10.77-10.34c0-2.01-0.3-4.26-0.67-6.63l-1.28-7.73l5.9-0.97l0.91,5.36
			c0.67,3.83,0.97,7.3,0.97,9.8c0,10.83-5.17,18.5-16.55,18.5h-2.43V224.72z M577.34,189.73c0-2.68,1.4-3.77,3.35-3.77h1.03
			c1.95,0,3.35,1.1,3.35,3.77c0,2.62-1.4,3.71-3.35,3.71h-1.03C578.74,193.44,577.34,192.34,577.34,189.73z"/>
		<path class="st1" d="M593.1,206.52v-33.47h6.51v32.62c0,3.47,1.4,4.44,4.99,4.44h1.89v6.33l-1.64,1.64h-0.06
			C596.75,218.08,593.1,214.8,593.1,206.52z"/>
		<path class="st1" d="M604.85,211.75l1.64-1.64h1.89c3.41,0,4.99-1.46,4.99-4.56v-8.95h5.96v8.95c0,3.1,1.46,4.56,4.56,4.56h2.31
			v6.33l-1.64,1.64c-6.21,0-9.43-2.37-10.53-7.55h-0.3c-1.03,5.29-3.59,7.55-8.88,7.55V211.75z M612.46,227.21
			c0-2.68,1.4-3.77,3.35-3.77h1.03c1.95,0,3.35,1.1,3.35,3.77c0,2.62-1.4,3.71-3.35,3.71h-1.03
			C613.86,230.92,612.46,229.83,612.46,227.21z"/>
		<path class="st1" d="M624.57,211.75l1.64-1.64h3.59c8.52,0,13.27-0.37,20.81-4.02l3.23-1.58v-0.3l-9.49-2.01l-10.22-2.56v4.81
			h-6.15v-4.69c0-5.05,2.37-7.42,6.82-7.42c1.16,0,2.31,0.18,5.78,1.09l12.66,3.29c3.59,0.91,7.24,1.4,10.41,1.4h1.16v8.03h-4.81
			l-6.45,4.2c-10.47,6.88-16.12,7.73-23.73,7.73h-5.23V211.75z M638.63,183.15c0-2.68,1.4-3.77,3.35-3.77h1.03
			c1.95,0,3.35,1.1,3.35,3.77c0,2.62-1.4,3.71-3.35,3.71h-1.03C640.02,186.87,638.63,185.77,638.63,183.15z"/>
	</g>
</g>
<g>
	<g>
		<g>
			<path class="st0" d="M165.52,0.4c-36.97,2.44-61.02,20.36-67.43,67.5c-2.09,15.35,0.77,31.09,8.65,44.42
				c25.84,43.71,92.64,50.66,124.02,5.43C266,66.94,233.08-5.18,165.52,0.4z M175.69,73.62c12.54,0.29,30.87,4.88,30.29,29.84
				c-0.36,15.12-4.39,19.19-52.07,18.07c-8.36-0.19-17.16-2.29-16.77-18.93c0.31-13.09,7.72-20.5,16.37-24.54
				c-7.5,1.33-15.09-0.08-18.68-13.64c-6.27-23.59,19.41-35.38,31.23-38.52c12.82-3.41,32.73-4.48,38.99,19.11
				c3.45,12.99,1.31,18.3-35.72,28.89C171.71,73.64,173.88,73.58,175.69,73.62z"/>
		</g>
	</g>
	<path class="st0" d="M68.73,0.41c7.54-0.57,19.51-0.82,26.64,1.19c24.01,6.76-38.49,31.08-32.61,75.18
		c5.23,39.2,53.89,69.26,26.61,71.76c-32.33,2.97-63.97-8.89-80.07-38.09C-16.86,62.99,15.08,4.5,68.73,0.41z"/>
	<g>
		<path class="st0" d="M193.07,94.78c-4.43,2.63-8.42,6.85-10.71,11.83c-0.52,1.13-2.19,0.92-2.36-0.31
			c-0.01-0.06-0.02-0.13-0.03-0.19c-0.8-6.4,3.93-12.18,10.35-12.82l2.19-0.22C193.49,92.98,193.91,94.27,193.07,94.78z"/>
		<path class="st0" d="M169.71,97.02c-2.4,1.72-3.64,4.58-5.18,7.2c-0.75,1.28-2.72,0.7-2.65-0.78c0.14-2.95,1.5-6.72,7.2-8.05l0,0
			C170.01,95.29,170.47,96.48,169.71,97.02z"/>
		<path class="st0" d="M152.72,99.11c-1.82,1.69-3.36,3.91-4.49,6.35c-0.38,0.81-1.57,0.63-1.72-0.25
			c-0.01-0.04-0.01-0.07-0.02-0.11c-0.6-3.62,2.09-6.95,5.76-7.14h0C152.86,97.92,153.18,98.68,152.72,99.11z"/>
	</g>
	<g>
		<path class="st0" d="M185.58,41.23c-2.49,3.66-4.21,8.15-4.63,12.75c-0.23,2.57-1.41,2.8-2.56,0.49
			c-0.03-0.05-0.05-0.11-0.08-0.16c-2.74-5.66-0.21-12.47,5.43-15.22l0,0C185.1,38.43,186.42,39.99,185.58,41.23z"/>
		<path class="st0" d="M165.73,49.75c-1.34,1.98-2.24,5.68-2.77,8.49c-0.24,1.25-1.98,1.41-2.41,0.21c-1.06-3-1.29-7.26,4.02-10.01
			v0C165.41,48.03,166.25,48.98,165.73,49.75z"/>
		<path class="st0" d="M150.53,57.62c-1.12,2.22-1.79,4.85-2.01,7.52c-0.13,1.57-0.91,1.73-1.7,0.36c-0.02-0.03-0.04-0.07-0.06-0.1
			c-1.83-3.18-0.46-7.25,2.91-8.7v0C150.25,56.47,150.81,57.07,150.53,57.62z"/>
	</g>
</g>
<g>
	<g>
		<path class="st1" d="M1.55,202.76c0-12.18,6.07-18.98,15.61-18.98c6.48,0,10.68,2.75,13.22,8.35l-5.86,3.11
			c-1.04-3.21-3.32-5.39-7.36-5.39c-5.08,0-8.35,3.68-8.35,9.85v5.7c0,6.22,3.27,9.75,8.35,9.75c4.1,0,6.64-2.49,7.83-5.75
			l5.55,3.27c-2.59,5.39-6.9,8.55-13.38,8.55C7.62,221.22,1.55,214.94,1.55,202.76z"/>
		<path class="st1" d="M35.41,186.27v-1.04c0-1.92,1.14-3.32,3.89-3.32c2.7,0,3.89,1.4,3.89,3.32v1.04c0,1.92-1.19,3.32-3.89,3.32
			C36.55,189.59,35.41,188.19,35.41,186.27z M35.98,193.53h6.64v27.07h-6.64V193.53z"/>
		<path class="st1" d="M51.74,213.7v-14.88h-3.99v-5.29h2.07c1.97,0,2.59-0.93,2.59-2.8v-4.61h5.96v7.41h5.55v5.29h-5.55v16.49h5.13
			v5.29h-4.77C54.18,220.6,51.74,218.11,51.74,213.7z"/>
		<path class="st1" d="M86.27,193.53h6.22l-10.89,31.89c-1.35,3.89-3.27,5.55-7.72,5.55h-3.99v-5.29h4.87l1.24-3.79l-9.7-28.36h6.58
			l4.72,14.31l1.76,6.84h0.31l1.87-6.84L86.27,193.53z"/>
		<path class="st1" d="M109.5,184.4h16.75c5.96,0,9.59,3.68,9.59,9.28c0,5.5-3.16,7.57-6.48,7.78v0.31
			c3.16,0.05,7.83,2.28,7.83,8.45c0,5.81-3.99,10.37-9.33,10.37H109.5V184.4z M116.35,199.49h8.45c2.49,0,3.94-1.45,3.94-3.84v-1.61
			c0-2.44-1.45-3.84-3.94-3.84h-8.45V199.49z M116.35,214.79h9.54c2.59,0,4.15-1.4,4.15-3.94v-1.76c0-2.54-1.56-3.99-4.15-3.99
			h-9.54V214.79z"/>
		<path class="st1" d="M141.54,213.23c0-5.55,4.2-8.3,11.56-8.3h4.62v-1.97c0-3.01-1.5-4.77-5.03-4.77c-3.11,0-4.87,1.56-6.17,3.42
			l-3.94-3.53c1.97-3.11,5.13-5.18,10.58-5.18c7.31,0,11.2,3.47,11.2,9.64v12.75h2.7v5.29h-3.68c-2.85,0-4.61-1.87-5.03-4.67h-0.31
			c-0.88,3.47-3.84,5.29-7.88,5.29C144.66,221.22,141.54,218.05,141.54,213.23z M157.72,212.51v-3.58h-4.25
			c-3.47,0-5.18,1.19-5.18,3.32v0.88c0,2.18,1.5,3.27,4.1,3.27C155.34,216.39,157.72,215.05,157.72,212.51z"/>
		<path class="st1" d="M172.45,182.23h6.64v23.12h0.26l3.58-4.87l6.07-6.95h7.52L187.17,204l10.32,16.59h-7.88l-6.95-12.13
			l-3.58,3.89v8.24h-6.64V182.23z"/>
		<path class="st1" d="M198.53,207.01c0-8.55,4.61-14.1,12.55-14.1c8.45,0,12.34,6.22,12.34,13.64v2.18h-17.99v0.67
			c0,3.89,2.23,6.53,6.58,6.53c3.27,0,5.24-1.56,6.9-3.68l3.58,3.99c-2.23,3.06-6.17,4.98-11.2,4.98
			C203.3,221.22,198.53,215.67,198.53,207.01z M205.42,204.21v0.42h11.1v-0.47c0-3.73-1.92-6.27-5.34-6.27
			C207.7,197.89,205.42,200.48,205.42,204.21z"/>
		<path class="st1" d="M229.27,220.6v-27.07h6.64v5.6h0.26c0.67-2.85,2.85-5.6,7.16-5.6h1.45v6.27h-2.07c-4.46,0-6.79,1.25-6.79,4.2
			v16.59H229.27z"/>
	</g>
</g>
</svg>
